<svg width="65" height="72" viewBox="0 0 65 72" fill="none" xmlns="http://www.w3.org/2000/svg">
<path fill-rule="evenodd" clip-rule="evenodd" d="M2.49951 8C2.49951 4.68629 5.1858 2 8.49951 2H36.4572C36.6541 2 36.8501 2.00969 37.0444 2.02879V15.4554C37.0444 17.6645 38.8353 19.4554 41.0444 19.4554H53.4995V44.3222C52.533 44.1112 51.5293 44 50.4995 44C42.7675 44 36.4995 50.268 36.4995 58C36.4995 60.2889 37.0488 62.4495 38.0227 64.3571H8.49951C5.1858 64.3571 2.49951 61.6708 2.49951 58.3571V8ZM39.2664 66.3571H8.49951C4.08123 66.3571 0.499512 62.7754 0.499512 58.3571V8C0.499512 3.58172 4.08123 0 8.49951 0H36.4572C38.5789 0 40.6137 0.842855 42.114 2.34315L53.1564 13.3855C54.6567 14.8858 55.4995 16.9206 55.4995 19.0424V19.3842L55.4998 19.4554L55.4995 44.9193C60.7622 46.9321 64.4995 52.0296 64.4995 58C64.4995 65.732 58.2315 72 50.4995 72C45.9 72 41.8185 69.782 39.2664 66.3571ZM11.7924 14.2929C12.1829 13.9024 12.8161 13.9024 13.2066 14.2929L16.7495 17.8358L20.2924 14.2929C20.6829 13.9024 21.3161 13.9024 21.7066 14.2929C22.0971 14.6834 22.0971 15.3166 21.7066 15.7071L18.1637 19.25L21.7066 22.7929C22.0971 23.1834 22.0971 23.8166 21.7066 24.2071C21.3161 24.5976 20.6829 24.5976 20.2924 24.2071L16.7495 20.6642L13.2066 24.2071C12.8161 24.5976 12.1829 24.5976 11.7924 24.2071C11.4019 23.8166 11.4019 23.1834 11.7924 22.7929L15.3353 19.25L11.7924 15.7071C11.4019 15.3166 11.4019 14.6834 11.7924 14.2929ZM11.4995 33.5C11.4995 32.1193 12.6188 31 13.9995 31H28.9995C30.3802 31 31.4995 32.1193 31.4995 33.5C31.4995 34.8807 30.3802 36 28.9995 36H13.9995C12.6188 36 11.4995 34.8807 11.4995 33.5ZM13.9995 33C13.7234 33 13.4995 33.2239 13.4995 33.5C13.4995 33.7761 13.7234 34 13.9995 34H28.9995C29.2757 34 29.4995 33.7761 29.4995 33.5C29.4995 33.2239 29.2757 33 28.9995 33H13.9995ZM13.9995 39C12.6188 39 11.4995 40.1193 11.4995 41.5C11.4995 42.8807 12.6188 44 13.9995 44H41.9995C43.3802 44 44.4995 42.8807 44.4995 41.5C44.4995 40.1193 43.3802 39 41.9995 39H13.9995ZM13.4995 41.5C13.4995 41.2239 13.7234 41 13.9995 41H41.9995C42.2757 41 42.4995 41.2239 42.4995 41.5C42.4995 41.7761 42.2757 42 41.9995 42H13.9995C13.7234 42 13.4995 41.7761 13.4995 41.5ZM58.5811 8.22572C57.9246 7.29379 56.7422 6.8913 55.6534 7.22915C53.9494 7.75793 53.2561 9.79462 54.2837 11.2532L56.463 14.3467C57.1384 15.3055 57.504 16.4481 57.5106 17.6209L57.5318 21.4226C57.5399 22.8767 58.7244 24.0494 60.1785 24.0429C61.6344 24.0365 62.8092 22.8507 62.802 21.3949L62.7816 17.2657C62.7716 15.2482 62.1434 13.2823 60.9814 11.6329L58.5811 8.22572ZM56.2462 9.1393C56.5065 9.05853 56.7891 9.15475 56.9461 9.37756L59.3464 12.7848C60.2728 14.0997 60.7737 15.6671 60.7816 17.2755L60.802 21.4047C60.8037 21.7556 60.5206 22.0414 60.1697 22.043C59.8192 22.0445 59.5337 21.7619 59.5318 21.4114L59.5105 17.6097C59.5017 16.0284 59.0088 14.4877 58.098 13.1949L55.9187 10.1014C55.673 9.75265 55.8388 9.26572 56.2462 9.1393ZM38.4995 58C38.4995 51.3726 43.8721 46 50.4995 46C57.1269 46 62.4995 51.3726 62.4995 58C62.4995 64.6274 57.1269 70 50.4995 70C43.8721 70 38.4995 64.6274 38.4995 58ZM47.9995 51.5C47.9995 50.1193 49.1188 49 50.4995 49C51.8802 49 52.9995 50.1193 52.9995 51.5V57.5C52.9995 58.8807 51.8802 60 50.4995 60C49.1188 60 47.9995 58.8807 47.9995 57.5V51.5ZM50.4995 51C50.2234 51 49.9995 51.2239 49.9995 51.5V57.5C49.9995 57.7761 50.2234 58 50.4995 58C50.7757 58 50.9995 57.7761 50.9995 57.5V51.5C50.9995 51.2239 50.7757 51 50.4995 51ZM50.4995 67C49.1188 67 47.9995 65.8807 47.9995 64.5C47.9995 63.1193 49.1188 62 50.4995 62C51.8802 62 52.9995 63.1193 52.9995 64.5C52.9995 65.8807 51.8802 67 50.4995 67ZM49.9995 64.5C49.9995 64.7761 50.2234 65 50.4995 65C50.7757 65 50.9995 64.7761 50.9995 64.5C50.9995 64.2239 50.7757 64 50.4995 64C50.2234 64 49.9995 64.2239 49.9995 64.5Z" fill="#6194FA"/>
</svg>
